<?xml version="1.0" standalone="no"?>
<!DOCTYPE svg PUBLIC "-//W3C//DTD SVG 20010904//EN"
 "http://www.w3.org/TR/2001/REC-SVG-20010904/DTD/svg10.dtd">
<svg version="1.0" xmlns="http://www.w3.org/2000/svg"
 width="512.000000pt" height="512.000000pt" viewBox="0 0 512.000000 512.000000"
 preserveAspectRatio="xMidYMid meet">

<g transform="translate(0.000000,512.000000) scale(0.100000,-0.100000)"
fill="#FFFFFF" stroke="none">
<path d="M244 4791 c-51 -13 -134 -63 -165 -100 -16 -20 -39 -56 -51 -81 l-23
-45 0 -2005 0 -2005 27 -51 c40 -76 70 -107 140 -145 l63 -34 2325 0 2325 0
63 34 c70 38 100 69 140 145 l27 51 0 1685 0 1685 -34 63 c-38 70 -69 100
-145 140 l-51 27 -1210 3 -1210 2 -310 310 c-170 170 -323 314 -338 320 -33
12 -1522 13 -1573 1z m1756 -617 c168 -168 319 -312 337 -320 27 -12 228 -14
1248 -14 l1215 0 0 -1600 0 -1600 -2240 0 -2240 0 0 1920 0 1920 688 0 687 0
305 -306z"/>
<path d="M3200 2560 l0 -320 -320 0 -320 0 0 -160 0 -160 320 0 320 0 0 -320
0 -320 160 0 160 0 0 320 0 320 320 0 320 0 0 160 0 160 -320 0 -320 0 0 320
0 320 -160 0 -160 0 0 -320z"/>
</g>
</svg>
