<?xml version="1.0" standalone="no"?>
<!DOCTYPE svg PUBLIC "-//W3C//DTD SVG 20010904//EN"
 "http://www.w3.org/TR/2001/REC-SVG-20010904/DTD/svg10.dtd">
<svg version="1.0" xmlns="http://www.w3.org/2000/svg"
 width="512.000000pt" height="512.000000pt" viewBox="0 0 512.000000 512.000000"
 preserveAspectRatio="xMidYMid meet">

<g transform="translate(0.000000,512.000000) scale(0.100000,-0.100000)"
fill="#FFFFFF" stroke="none">
<path d="M810 4914 c-137 -37 -232 -143 -259 -289 -15 -83 -15 -3237 0 -3320
29 -156 139 -267 293 -296 32 -6 310 -8 694 -7 l642 3 26 26 c30 31 41 92 22
129 -7 14 -29 33 -48 42 -32 17 -86 18 -675 18 -601 0 -642 1 -674 18 -19 10
-43 34 -53 53 -17 32 -18 104 -18 1672 0 1817 -5 1684 65 1727 32 20 47 20
989 20 l956 0 0 -285 c0 -228 3 -293 15 -321 25 -61 44 -64 400 -64 l315 0 0
-944 0 -943 -55 -7 c-123 -14 -303 -88 -420 -171 -78 -56 -202 -184 -250 -259
-57 -90 -104 -198 -132 -305 -20 -77 -25 -121 -26 -226 0 -71 5 -157 12 -190
63 -304 248 -554 511 -689 282 -145 597 -151 879 -16 540 259 722 935 387
1438 -94 142 -267 285 -425 352 -81 35 -209 70 -253 70 l-28 0 0 1014 0 1013
-22 31 c-27 38 -726 695 -756 711 -15 8 -308 11 -1039 10 -862 0 -1026 -3
-1073 -15z m2458 -601 l57 -52 -167 -1 -168 0 0 156 0 156 111 -103 c60 -57
136 -127 167 -156z m527 -2398 c193 -54 374 -197 473 -375 106 -191 121 -445
39 -650 -75 -185 -214 -330 -399 -414 -99 -45 -197 -66 -316 -66 -419 0 -762
345 -762 765 0 360 250 670 606 749 86 19 273 15 359 -9z"/>
<path d="M3519 1601 l-29 -29 0 -140 0 -141 -146 -3 c-146 -3 -146 -3 -170
-31 -36 -42 -34 -109 5 -148 l29 -29 141 0 141 0 0 -141 0 -141 29 -29 c42
-42 110 -42 152 0 l29 29 0 141 0 141 141 0 141 0 29 29 c43 43 41 101 -5 147
l-34 34 -135 0 -136 0 -3 146 c-3 146 -3 146 -31 170 -42 36 -109 34 -148 -5z"/>
<path d="M1323 3406 c-24 -21 -28 -32 -28 -75 0 -42 5 -55 28 -78 l27 -28 770
0 769 0 30 29 c26 25 31 37 31 77 0 37 -5 52 -26 73 l-27 26 -773 0 -773 0
-28 -24z"/>
<path d="M1337 2759 c-24 -14 -47 -62 -47 -100 0 -22 10 -41 34 -65 l34 -34
750 0 c444 0 761 4 775 9 72 28 92 118 38 172 l-29 29 -769 0 c-503 -1 -774
-4 -786 -11z"/>
<path d="M1341 2086 c-68 -38 -66 -152 4 -184 19 -9 150 -12 483 -12 503 0
485 -2 518 62 22 42 11 90 -27 122 l-31 26 -461 0 c-364 -1 -467 -4 -486 -14z"/>
</g>
</svg>
