<?xml version="1.0" standalone="no"?>
<!DOCTYPE svg PUBLIC "-//W3C//DTD SVG 20010904//EN"
 "http://www.w3.org/TR/2001/REC-SVG-20010904/DTD/svg10.dtd">
<svg version="1.0" xmlns="http://www.w3.org/2000/svg"
 width="256.000000pt" height="256.000000pt" viewBox="0 0 256.000000 256.000000"
 preserveAspectRatio="xMidYMid meet">

<g transform="translate(0.000000,256.000000) scale(0.100000,-0.100000)"
fill="#FFFFFF" stroke="none">
<path d="M1113 2440 c-43 -26 -61 -55 -69 -117 l-7 -53 -279 0 c-313 0 -318
-1 -357 -70 -16 -29 -21 -55 -21 -109 0 -87 16 -130 64 -166 32 -25 36 -32 36
-75 0 -42 -4 -50 -40 -79 -77 -62 -77 -160 0 -222 l40 -32 0 -669 0 -668 34
-38 34 -37 732 0 732 0 34 37 34 38 0 668 0 669 40 32 c77 62 77 160 0 222
-36 29 -40 37 -40 79 0 43 4 50 36 75 48 36 64 79 64 166 0 54 -5 80 -21 109
-39 69 -44 70 -357 70 l-280 0 -7 54 c-3 31 -15 66 -27 81 -37 47 -66 55 -210
55 -114 0 -138 -3 -165 -20z m295 -82 c7 -7 12 -29 12 -50 l0 -38 -140 0 -140
0 0 38 c0 21 5 43 12 50 8 8 51 12 128 12 77 0 120 -4 128 -12z m664 -195 c14
-12 18 -31 18 -76 0 -107 81 -97 -808 -97 -889 0 -812 -9 -812 93 0 107 -81
97 808 97 708 0 777 -1 794 -17z m-82 -339 c0 -88 9 -109 49 -117 41 -9 57
-41 36 -73 -8 -13 -24 -24 -35 -24 -10 0 -26 -7 -34 -16 -14 -14 -16 -91 -16
-698 0 -517 -3 -685 -12 -694 -17 -17 -1379 -17 -1396 0 -9 9 -12 177 -12 694
0 607 -2 684 -16 698 -8 9 -24 16 -34 16 -11 0 -27 11 -35 24 -21 32 -5 64 36
73 40 8 49 29 49 117 l0 76 710 0 710 0 0 -76z"/>
<path d="M743 1700 c-12 -5 -24 -19 -28 -31 -11 -34 25 -59 86 -59 l49 0 0
-593 c0 -520 2 -595 16 -615 18 -27 45 -28 67 -4 15 17 17 74 17 615 l0 597
140 0 140 0 0 -593 c0 -520 2 -595 16 -615 19 -28 49 -28 68 0 14 20 16 95 16
615 l0 593 140 0 140 0 0 -598 c0 -568 1 -600 18 -615 25 -23 48 -21 66 5 14
20 16 95 16 615 l0 593 49 0 c61 0 97 25 86 59 -4 12 -18 26 -32 32 -31 12
-1040 11 -1070 -1z"/>
</g>
</svg>
