<?xml version="1.0" standalone="no"?>
<!DOCTYPE svg PUBLIC "-//W3C//DTD SVG 20010904//EN"
 "http://www.w3.org/TR/2001/REC-SVG-20010904/DTD/svg10.dtd">
<svg version="1.0" xmlns="http://www.w3.org/2000/svg"
 width="512.000000pt" height="512.000000pt" viewBox="0 0 512.000000 512.000000"
 preserveAspectRatio="xMidYMid meet">

<g transform="translate(0.000000,512.000000) scale(0.100000,-0.100000)"
fill="#cccccc" stroke="none">
<path d="M2480 4867 c-51 -15 -1013 -973 -1043 -1037 -68 -150 43 -329 207
-333 102 -2 109 4 404 296 l272 272 0 -1329 c0 -1014 3 -1338 12 -1370 16 -55
99 -138 154 -154 96 -28 182 -4 247 68 24 26 49 66 55 88 9 29 12 370 12 1368
l0 1329 273 -272 c294 -292 301 -298 403 -296 165 4 275 183 206 334 -15 33
-148 172 -508 531 -408 407 -496 490 -533 503 -49 17 -109 18 -161 2z"/>
<path d="M400 2787 c-52 -17 -133 -102 -148 -157 -10 -35 -12 -279 -10 -1065
l3 -1020 32 -67 c44 -93 100 -151 191 -196 l76 -37 2016 0 2016 0 76 37 c91
45 147 103 191 196 l32 67 3 1020 c2 763 0 1031 -9 1063 -17 61 -87 136 -146
156 -97 33 -175 15 -248 -59 -32 -31 -55 -65 -63 -91 -9 -31 -12 -272 -12
-978 l0 -936 -1840 0 -1840 0 0 936 c0 695 -3 947 -12 976 -17 59 -88 133
-145 152 -53 18 -112 19 -163 3z"/>
</g>
</svg>
